<?xml version="1.0" standalone="no"?>
<!DOCTYPE svg PUBLIC "-//W3C//DTD SVG 20010904//EN"
 "http://www.w3.org/TR/2001/REC-SVG-20010904/DTD/svg10.dtd">
<svg version="1.0" xmlns="http://www.w3.org/2000/svg"
 width="400.000000pt" height="400.000000pt" viewBox="0 0 400.000000 400.000000"
 preserveAspectRatio="xMidYMid meet">
<metadata>
Created by potrace 1.14, written by Peter Selinger 2001-2017
</metadata>
<g transform="translate(0.000000,400.000000) scale(0.100000,-0.100000)"
fill="#000000" stroke="none">
<path d="M1042 3892 c-15 -10 -22 -25 -22 -48 0 -26 -4 -34 -18 -34 -35 0 -50
-31 -51 -100 -1 -36 -2 -102 -3 -148 -1 -72 2 -86 23 -116 l24 -34 -1 -878 c0
-484 3 -887 8 -896 5 -11 5 -18 0 -18 -6 0 -9 -54 -8 -124 2 -131 11 -158 61
-198 23 -18 24 -29 10 -193 -4 -38 -8 -90 -10 -115 -2 -25 -4 -45 -5 -45 -3 0
-9 -39 -15 -117 -4 -46 -9 -91 -10 -100 -4 -20 -17 -134 -19 -168 -1 -14 -5
-30 -9 -37 -4 -6 -3 -14 3 -18 6 -4 8 -10 6 -13 -7 -12 -22 -137 -31 -252 -1
-25 -4 -49 -5 -55 -5 -24 1 -44 23 -66 22 -24 25 -24 188 -23 91 0 170 4 176
7 7 4 14 4 16 0 6 -10 340 -8 356 1 6 4 11 4 11 -1 0 -7 52 -8 185 -3 28 1 55
1 60 0 13 -2 1008 -2 1015 1 3 1 8 1 12 0 4 0 13 9 19 22 7 12 17 25 23 29 8
5 8 8 0 8 -6 0 -11 17 -11 37 0 38 -7 110 -18 188 -4 22 -8 67 -10 100 -2 33
-4 60 -5 60 0 0 -3 20 -5 45 -3 25 -7 61 -10 80 -3 19 -6 61 -6 93 -1 31 -5
57 -8 57 -3 0 -7 19 -8 43 -3 75 -18 237 -23 247 -2 3 -4 25 -5 50 -2 25 -4
47 -5 50 -12 32 -4 55 31 79 39 27 73 74 62 84 -3 4 -2 12 3 19 11 16 11 978
0 996 -4 7 -4 12 1 12 4 0 8 198 8 440 0 244 -4 440 -9 440 -5 0 -4 6 1 13 5
6 8 36 7 65 -2 47 1 58 25 82 l27 29 -1 155 c-1 110 -5 159 -14 170 -7 9 -17
14 -21 11 -13 -8 -42 26 -36 41 3 7 1 16 -5 19 -5 4 -7 10 -4 15 3 4 -7 11
-23 16 -15 4 -455 8 -978 9 -810 1 -954 -1 -972 -13z"/>
</g>
</svg>
